<mxfile host="app.diagrams.net" modified="2023-10-24T08:49:12.065Z" agent="Mozilla/5.0 (Windows NT 10.0; Win64; x64) AppleWebKit/537.36 (KHTML, like Gecko) Chrome/118.0.0.0 Safari/537.36" etag="ahBhmCnvtc9nTHlvatN5" version="22.0.6" type="github">
  <diagram id="C5RBs43oDa-KdzZeNtuy" name="Page-1">
    <mxGraphModel dx="2049" dy="1066" grid="1" gridSize="10" guides="1" tooltips="1" connect="1" arrows="1" fold="1" page="1" pageScale="1" pageWidth="827" pageHeight="1169" math="0" shadow="0">
      <root>
        <mxCell id="WIyWlLk6GJQsqaUBKTNV-0" />
        <mxCell id="WIyWlLk6GJQsqaUBKTNV-1" parent="WIyWlLk6GJQsqaUBKTNV-0" />
        <mxCell id="Vi1Zf-3-arT8VYsQfJaG-1" value="" style="rounded=0;whiteSpace=wrap;html=1;" vertex="1" parent="WIyWlLk6GJQsqaUBKTNV-1">
          <mxGeometry x="10" y="60" width="900" height="580" as="geometry" />
        </mxCell>
        <mxCell id="Vi1Zf-3-arT8VYsQfJaG-2" value="" style="rounded=0;whiteSpace=wrap;html=1;" vertex="1" parent="WIyWlLk6GJQsqaUBKTNV-1">
          <mxGeometry x="20" y="86" width="870" height="544" as="geometry" />
        </mxCell>
        <mxCell id="Vi1Zf-3-arT8VYsQfJaG-3" value="" style="rounded=0;whiteSpace=wrap;html=1;" vertex="1" parent="WIyWlLk6GJQsqaUBKTNV-1">
          <mxGeometry x="30" y="120" width="830" height="500" as="geometry" />
        </mxCell>
        <mxCell id="Vi1Zf-3-arT8VYsQfJaG-4" value="셸" style="text;html=1;strokeColor=default;fillColor=none;align=center;verticalAlign=middle;whiteSpace=wrap;rounded=0;" vertex="1" parent="WIyWlLk6GJQsqaUBKTNV-1">
          <mxGeometry x="10" y="60" width="60" height="30" as="geometry" />
        </mxCell>
        <mxCell id="Vi1Zf-3-arT8VYsQfJaG-5" value="커널" style="text;html=1;strokeColor=default;fillColor=none;align=center;verticalAlign=middle;whiteSpace=wrap;rounded=0;" vertex="1" parent="WIyWlLk6GJQsqaUBKTNV-1">
          <mxGeometry x="20" y="90" width="60" height="30" as="geometry" />
        </mxCell>
        <mxCell id="Vi1Zf-3-arT8VYsQfJaG-6" value="O/S" style="text;html=1;strokeColor=default;fillColor=none;align=center;verticalAlign=middle;whiteSpace=wrap;rounded=0;" vertex="1" parent="WIyWlLk6GJQsqaUBKTNV-1">
          <mxGeometry x="30" y="120" width="60" height="30" as="geometry" />
        </mxCell>
        <mxCell id="Vi1Zf-3-arT8VYsQfJaG-20" value="" style="edgeStyle=orthogonalEdgeStyle;rounded=0;orthogonalLoop=1;jettySize=auto;html=1;entryX=0.5;entryY=0;entryDx=0;entryDy=0;" edge="1" parent="WIyWlLk6GJQsqaUBKTNV-1" source="Vi1Zf-3-arT8VYsQfJaG-7" target="Vi1Zf-3-arT8VYsQfJaG-13">
          <mxGeometry relative="1" as="geometry">
            <Array as="points">
              <mxPoint x="180" y="315" />
              <mxPoint x="180" y="310" />
              <mxPoint x="200" y="310" />
            </Array>
          </mxGeometry>
        </mxCell>
        <mxCell id="Vi1Zf-3-arT8VYsQfJaG-74" style="edgeStyle=orthogonalEdgeStyle;rounded=0;orthogonalLoop=1;jettySize=auto;html=1;entryX=0;entryY=0.5;entryDx=0;entryDy=0;" edge="1" parent="WIyWlLk6GJQsqaUBKTNV-1" source="Vi1Zf-3-arT8VYsQfJaG-7" target="Vi1Zf-3-arT8VYsQfJaG-39">
          <mxGeometry relative="1" as="geometry">
            <Array as="points">
              <mxPoint x="100" y="145" />
            </Array>
          </mxGeometry>
        </mxCell>
        <mxCell id="Vi1Zf-3-arT8VYsQfJaG-7" value="메모리 계층구조" style="swimlane;fontStyle=0;childLayout=stackLayout;horizontal=1;startSize=30;horizontalStack=0;resizeParent=1;resizeParentMax=0;resizeLast=0;collapsible=1;marginBottom=0;whiteSpace=wrap;html=1;" vertex="1" parent="WIyWlLk6GJQsqaUBKTNV-1">
          <mxGeometry x="40" y="240" width="120" height="150" as="geometry" />
        </mxCell>
        <mxCell id="Vi1Zf-3-arT8VYsQfJaG-8" value="Auxillary Memory" style="text;strokeColor=none;fillColor=none;align=left;verticalAlign=middle;spacingLeft=4;spacingRight=4;overflow=hidden;points=[[0,0.5],[1,0.5]];portConstraint=eastwest;rotatable=0;whiteSpace=wrap;html=1;" vertex="1" parent="Vi1Zf-3-arT8VYsQfJaG-7">
          <mxGeometry y="30" width="120" height="30" as="geometry" />
        </mxCell>
        <mxCell id="Vi1Zf-3-arT8VYsQfJaG-9" value="Primary Memory" style="text;strokeColor=none;fillColor=none;align=left;verticalAlign=middle;spacingLeft=4;spacingRight=4;overflow=hidden;points=[[0,0.5],[1,0.5]];portConstraint=eastwest;rotatable=0;whiteSpace=wrap;html=1;" vertex="1" parent="Vi1Zf-3-arT8VYsQfJaG-7">
          <mxGeometry y="60" width="120" height="30" as="geometry" />
        </mxCell>
        <mxCell id="Vi1Zf-3-arT8VYsQfJaG-10" value="Cache Memory" style="text;strokeColor=none;fillColor=none;align=left;verticalAlign=middle;spacingLeft=4;spacingRight=4;overflow=hidden;points=[[0,0.5],[1,0.5]];portConstraint=eastwest;rotatable=0;whiteSpace=wrap;html=1;" vertex="1" parent="Vi1Zf-3-arT8VYsQfJaG-7">
          <mxGeometry y="90" width="120" height="30" as="geometry" />
        </mxCell>
        <mxCell id="Vi1Zf-3-arT8VYsQfJaG-11" value="Register Memory" style="text;strokeColor=none;fillColor=none;align=left;verticalAlign=middle;spacingLeft=4;spacingRight=4;overflow=hidden;points=[[0,0.5],[1,0.5]];portConstraint=eastwest;rotatable=0;whiteSpace=wrap;html=1;" vertex="1" parent="Vi1Zf-3-arT8VYsQfJaG-7">
          <mxGeometry y="120" width="120" height="30" as="geometry" />
        </mxCell>
        <mxCell id="Vi1Zf-3-arT8VYsQfJaG-38" style="edgeStyle=orthogonalEdgeStyle;rounded=0;orthogonalLoop=1;jettySize=auto;html=1;entryX=0;entryY=0.5;entryDx=0;entryDy=0;" edge="1" parent="WIyWlLk6GJQsqaUBKTNV-1" source="Vi1Zf-3-arT8VYsQfJaG-13" target="Vi1Zf-3-arT8VYsQfJaG-15">
          <mxGeometry relative="1" as="geometry" />
        </mxCell>
        <mxCell id="Vi1Zf-3-arT8VYsQfJaG-78" value="" style="edgeStyle=orthogonalEdgeStyle;rounded=0;orthogonalLoop=1;jettySize=auto;html=1;" edge="1" parent="WIyWlLk6GJQsqaUBKTNV-1" source="Vi1Zf-3-arT8VYsQfJaG-13" target="Vi1Zf-3-arT8VYsQfJaG-17">
          <mxGeometry relative="1" as="geometry" />
        </mxCell>
        <mxCell id="Vi1Zf-3-arT8VYsQfJaG-13" value="인터럽트" style="text;html=1;strokeColor=default;fillColor=none;align=center;verticalAlign=middle;whiteSpace=wrap;rounded=0;" vertex="1" parent="WIyWlLk6GJQsqaUBKTNV-1">
          <mxGeometry x="170" y="320" width="60" height="30" as="geometry" />
        </mxCell>
        <mxCell id="Vi1Zf-3-arT8VYsQfJaG-21" value="" style="edgeStyle=orthogonalEdgeStyle;rounded=0;orthogonalLoop=1;jettySize=auto;html=1;" edge="1" parent="WIyWlLk6GJQsqaUBKTNV-1" source="Vi1Zf-3-arT8VYsQfJaG-14" target="Vi1Zf-3-arT8VYsQfJaG-15">
          <mxGeometry relative="1" as="geometry" />
        </mxCell>
        <mxCell id="Vi1Zf-3-arT8VYsQfJaG-14" value="I/O" style="text;html=1;strokeColor=default;fillColor=none;align=center;verticalAlign=middle;whiteSpace=wrap;rounded=0;" vertex="1" parent="WIyWlLk6GJQsqaUBKTNV-1">
          <mxGeometry x="260" y="210" width="60" height="30" as="geometry" />
        </mxCell>
        <mxCell id="Vi1Zf-3-arT8VYsQfJaG-29" value="" style="edgeStyle=orthogonalEdgeStyle;rounded=0;orthogonalLoop=1;jettySize=auto;html=1;entryX=0.5;entryY=0;entryDx=0;entryDy=0;" edge="1" parent="WIyWlLk6GJQsqaUBKTNV-1" source="Vi1Zf-3-arT8VYsQfJaG-15" target="Vi1Zf-3-arT8VYsQfJaG-16">
          <mxGeometry relative="1" as="geometry" />
        </mxCell>
        <mxCell id="Vi1Zf-3-arT8VYsQfJaG-15" value="오버헤드" style="text;html=1;strokeColor=default;fillColor=none;align=center;verticalAlign=middle;whiteSpace=wrap;rounded=0;" vertex="1" parent="WIyWlLk6GJQsqaUBKTNV-1">
          <mxGeometry x="270" y="310" width="60" height="30" as="geometry" />
        </mxCell>
        <mxCell id="Vi1Zf-3-arT8VYsQfJaG-30" value="" style="edgeStyle=orthogonalEdgeStyle;rounded=0;orthogonalLoop=1;jettySize=auto;html=1;" edge="1" parent="WIyWlLk6GJQsqaUBKTNV-1" source="Vi1Zf-3-arT8VYsQfJaG-16" target="Vi1Zf-3-arT8VYsQfJaG-17">
          <mxGeometry relative="1" as="geometry" />
        </mxCell>
        <mxCell id="Vi1Zf-3-arT8VYsQfJaG-31" value="" style="edgeStyle=orthogonalEdgeStyle;rounded=0;orthogonalLoop=1;jettySize=auto;html=1;" edge="1" parent="WIyWlLk6GJQsqaUBKTNV-1" source="Vi1Zf-3-arT8VYsQfJaG-16" target="Vi1Zf-3-arT8VYsQfJaG-17">
          <mxGeometry relative="1" as="geometry" />
        </mxCell>
        <mxCell id="Vi1Zf-3-arT8VYsQfJaG-32" style="edgeStyle=orthogonalEdgeStyle;rounded=0;orthogonalLoop=1;jettySize=auto;html=1;entryX=0.5;entryY=0;entryDx=0;entryDy=0;" edge="1" parent="WIyWlLk6GJQsqaUBKTNV-1" source="Vi1Zf-3-arT8VYsQfJaG-16" target="Vi1Zf-3-arT8VYsQfJaG-18">
          <mxGeometry relative="1" as="geometry" />
        </mxCell>
        <mxCell id="Vi1Zf-3-arT8VYsQfJaG-16" value="데드록" style="text;html=1;strokeColor=default;fillColor=none;align=center;verticalAlign=middle;whiteSpace=wrap;rounded=0;" vertex="1" parent="WIyWlLk6GJQsqaUBKTNV-1">
          <mxGeometry x="250" y="382" width="60" height="30" as="geometry" />
        </mxCell>
        <mxCell id="Vi1Zf-3-arT8VYsQfJaG-17" value="세마포어" style="text;html=1;strokeColor=default;fillColor=none;align=center;verticalAlign=middle;whiteSpace=wrap;rounded=0;" vertex="1" parent="WIyWlLk6GJQsqaUBKTNV-1">
          <mxGeometry x="190" y="442" width="60" height="30" as="geometry" />
        </mxCell>
        <mxCell id="Vi1Zf-3-arT8VYsQfJaG-18" value="뮤텍스" style="text;html=1;strokeColor=default;fillColor=none;align=center;verticalAlign=middle;whiteSpace=wrap;rounded=0;" vertex="1" parent="WIyWlLk6GJQsqaUBKTNV-1">
          <mxGeometry x="320" y="442" width="60" height="30" as="geometry" />
        </mxCell>
        <mxCell id="Vi1Zf-3-arT8VYsQfJaG-61" style="edgeStyle=orthogonalEdgeStyle;rounded=0;orthogonalLoop=1;jettySize=auto;html=1;entryX=0.5;entryY=0;entryDx=0;entryDy=0;" edge="1" parent="WIyWlLk6GJQsqaUBKTNV-1" source="Vi1Zf-3-arT8VYsQfJaG-33" target="Vi1Zf-3-arT8VYsQfJaG-47">
          <mxGeometry relative="1" as="geometry" />
        </mxCell>
        <mxCell id="Vi1Zf-3-arT8VYsQfJaG-33" value="데이터 구조" style="swimlane;fontStyle=0;childLayout=stackLayout;horizontal=1;startSize=30;horizontalStack=0;resizeParent=1;resizeParentMax=0;resizeLast=0;collapsible=1;marginBottom=0;whiteSpace=wrap;html=1;" vertex="1" parent="WIyWlLk6GJQsqaUBKTNV-1">
          <mxGeometry x="370" y="218" width="120" height="90" as="geometry" />
        </mxCell>
        <mxCell id="Vi1Zf-3-arT8VYsQfJaG-34" value="선형구조" style="text;strokeColor=none;fillColor=none;align=left;verticalAlign=middle;spacingLeft=4;spacingRight=4;overflow=hidden;points=[[0,0.5],[1,0.5]];portConstraint=eastwest;rotatable=0;whiteSpace=wrap;html=1;" vertex="1" parent="Vi1Zf-3-arT8VYsQfJaG-33">
          <mxGeometry y="30" width="120" height="30" as="geometry" />
        </mxCell>
        <mxCell id="Vi1Zf-3-arT8VYsQfJaG-35" value="비선형구조" style="text;strokeColor=none;fillColor=none;align=left;verticalAlign=middle;spacingLeft=4;spacingRight=4;overflow=hidden;points=[[0,0.5],[1,0.5]];portConstraint=eastwest;rotatable=0;whiteSpace=wrap;html=1;" vertex="1" parent="Vi1Zf-3-arT8VYsQfJaG-33">
          <mxGeometry y="60" width="120" height="30" as="geometry" />
        </mxCell>
        <mxCell id="Vi1Zf-3-arT8VYsQfJaG-52" style="edgeStyle=orthogonalEdgeStyle;rounded=0;orthogonalLoop=1;jettySize=auto;html=1;" edge="1" parent="WIyWlLk6GJQsqaUBKTNV-1" source="Vi1Zf-3-arT8VYsQfJaG-39" target="Vi1Zf-3-arT8VYsQfJaG-40">
          <mxGeometry relative="1" as="geometry" />
        </mxCell>
        <mxCell id="Vi1Zf-3-arT8VYsQfJaG-72" style="edgeStyle=orthogonalEdgeStyle;rounded=0;orthogonalLoop=1;jettySize=auto;html=1;entryX=0;entryY=0.5;entryDx=0;entryDy=0;" edge="1" parent="WIyWlLk6GJQsqaUBKTNV-1" source="Vi1Zf-3-arT8VYsQfJaG-39" target="Vi1Zf-3-arT8VYsQfJaG-71">
          <mxGeometry relative="1" as="geometry" />
        </mxCell>
        <mxCell id="Vi1Zf-3-arT8VYsQfJaG-77" style="edgeStyle=orthogonalEdgeStyle;rounded=0;orthogonalLoop=1;jettySize=auto;html=1;" edge="1" parent="WIyWlLk6GJQsqaUBKTNV-1" source="Vi1Zf-3-arT8VYsQfJaG-39" target="Vi1Zf-3-arT8VYsQfJaG-13">
          <mxGeometry relative="1" as="geometry">
            <Array as="points">
              <mxPoint x="620" y="180" />
              <mxPoint x="200" y="180" />
            </Array>
          </mxGeometry>
        </mxCell>
        <mxCell id="Vi1Zf-3-arT8VYsQfJaG-39" value="프로세스" style="text;html=1;strokeColor=default;fillColor=none;align=center;verticalAlign=middle;whiteSpace=wrap;rounded=0;" vertex="1" parent="WIyWlLk6GJQsqaUBKTNV-1">
          <mxGeometry x="610" y="130" width="60" height="30" as="geometry" />
        </mxCell>
        <mxCell id="Vi1Zf-3-arT8VYsQfJaG-53" style="edgeStyle=orthogonalEdgeStyle;rounded=0;orthogonalLoop=1;jettySize=auto;html=1;entryX=0;entryY=0.5;entryDx=0;entryDy=0;" edge="1" parent="WIyWlLk6GJQsqaUBKTNV-1" source="Vi1Zf-3-arT8VYsQfJaG-40" target="Vi1Zf-3-arT8VYsQfJaG-42">
          <mxGeometry relative="1" as="geometry" />
        </mxCell>
        <mxCell id="Vi1Zf-3-arT8VYsQfJaG-55" style="edgeStyle=orthogonalEdgeStyle;rounded=0;orthogonalLoop=1;jettySize=auto;html=1;exitX=0.5;exitY=1;exitDx=0;exitDy=0;" edge="1" parent="WIyWlLk6GJQsqaUBKTNV-1" source="Vi1Zf-3-arT8VYsQfJaG-40" target="Vi1Zf-3-arT8VYsQfJaG-43">
          <mxGeometry relative="1" as="geometry" />
        </mxCell>
        <mxCell id="Vi1Zf-3-arT8VYsQfJaG-40" value="PCB" style="text;html=1;strokeColor=default;fillColor=none;align=center;verticalAlign=middle;whiteSpace=wrap;rounded=0;" vertex="1" parent="WIyWlLk6GJQsqaUBKTNV-1">
          <mxGeometry x="610" y="200" width="60" height="30" as="geometry" />
        </mxCell>
        <mxCell id="Vi1Zf-3-arT8VYsQfJaG-41" value="TCB" style="text;html=1;strokeColor=default;fillColor=none;align=center;verticalAlign=middle;whiteSpace=wrap;rounded=0;" vertex="1" parent="WIyWlLk6GJQsqaUBKTNV-1">
          <mxGeometry x="710" y="260" width="60" height="30" as="geometry" />
        </mxCell>
        <mxCell id="Vi1Zf-3-arT8VYsQfJaG-54" style="edgeStyle=orthogonalEdgeStyle;rounded=0;orthogonalLoop=1;jettySize=auto;html=1;entryX=0.5;entryY=0;entryDx=0;entryDy=0;" edge="1" parent="WIyWlLk6GJQsqaUBKTNV-1" source="Vi1Zf-3-arT8VYsQfJaG-42" target="Vi1Zf-3-arT8VYsQfJaG-41">
          <mxGeometry relative="1" as="geometry" />
        </mxCell>
        <mxCell id="Vi1Zf-3-arT8VYsQfJaG-42" value="스레드" style="text;html=1;strokeColor=default;fillColor=none;align=center;verticalAlign=middle;whiteSpace=wrap;rounded=0;" vertex="1" parent="WIyWlLk6GJQsqaUBKTNV-1">
          <mxGeometry x="710" y="200" width="60" height="30" as="geometry" />
        </mxCell>
        <mxCell id="Vi1Zf-3-arT8VYsQfJaG-56" style="edgeStyle=orthogonalEdgeStyle;rounded=0;orthogonalLoop=1;jettySize=auto;html=1;exitX=0.5;exitY=1;exitDx=0;exitDy=0;" edge="1" parent="WIyWlLk6GJQsqaUBKTNV-1" source="Vi1Zf-3-arT8VYsQfJaG-43">
          <mxGeometry relative="1" as="geometry">
            <mxPoint x="624.7647058823532" y="340" as="targetPoint" />
            <Array as="points">
              <mxPoint x="625" y="340" />
              <mxPoint x="625" y="340" />
            </Array>
          </mxGeometry>
        </mxCell>
        <mxCell id="Vi1Zf-3-arT8VYsQfJaG-43" value="동기/비동기" style="text;html=1;strokeColor=default;fillColor=none;align=center;verticalAlign=middle;whiteSpace=wrap;rounded=0;" vertex="1" parent="WIyWlLk6GJQsqaUBKTNV-1">
          <mxGeometry x="580" y="290" width="90" height="30" as="geometry" />
        </mxCell>
        <mxCell id="Vi1Zf-3-arT8VYsQfJaG-44" value="스케줄링 알고리즘" style="swimlane;fontStyle=0;childLayout=stackLayout;horizontal=1;startSize=30;horizontalStack=0;resizeParent=1;resizeParentMax=0;resizeLast=0;collapsible=1;marginBottom=0;whiteSpace=wrap;html=1;" vertex="1" parent="WIyWlLk6GJQsqaUBKTNV-1">
          <mxGeometry x="530" y="472" width="120" height="90" as="geometry" />
        </mxCell>
        <mxCell id="Vi1Zf-3-arT8VYsQfJaG-45" value="선점" style="text;strokeColor=none;fillColor=none;align=left;verticalAlign=middle;spacingLeft=4;spacingRight=4;overflow=hidden;points=[[0,0.5],[1,0.5]];portConstraint=eastwest;rotatable=0;whiteSpace=wrap;html=1;" vertex="1" parent="Vi1Zf-3-arT8VYsQfJaG-44">
          <mxGeometry y="30" width="120" height="30" as="geometry" />
        </mxCell>
        <mxCell id="Vi1Zf-3-arT8VYsQfJaG-46" value="비선점" style="text;strokeColor=none;fillColor=none;align=left;verticalAlign=middle;spacingLeft=4;spacingRight=4;overflow=hidden;points=[[0,0.5],[1,0.5]];portConstraint=eastwest;rotatable=0;whiteSpace=wrap;html=1;" vertex="1" parent="Vi1Zf-3-arT8VYsQfJaG-44">
          <mxGeometry y="60" width="120" height="30" as="geometry" />
        </mxCell>
        <mxCell id="Vi1Zf-3-arT8VYsQfJaG-62" style="edgeStyle=orthogonalEdgeStyle;rounded=0;orthogonalLoop=1;jettySize=auto;html=1;" edge="1" parent="WIyWlLk6GJQsqaUBKTNV-1" source="Vi1Zf-3-arT8VYsQfJaG-47" target="Vi1Zf-3-arT8VYsQfJaG-48">
          <mxGeometry relative="1" as="geometry" />
        </mxCell>
        <mxCell id="Vi1Zf-3-arT8VYsQfJaG-47" value="논리적 주소" style="text;html=1;strokeColor=default;fillColor=none;align=center;verticalAlign=middle;whiteSpace=wrap;rounded=0;" vertex="1" parent="WIyWlLk6GJQsqaUBKTNV-1">
          <mxGeometry x="380" y="340" width="90" height="30" as="geometry" />
        </mxCell>
        <mxCell id="Vi1Zf-3-arT8VYsQfJaG-63" style="edgeStyle=orthogonalEdgeStyle;rounded=0;orthogonalLoop=1;jettySize=auto;html=1;" edge="1" parent="WIyWlLk6GJQsqaUBKTNV-1" source="Vi1Zf-3-arT8VYsQfJaG-48" target="Vi1Zf-3-arT8VYsQfJaG-49">
          <mxGeometry relative="1" as="geometry" />
        </mxCell>
        <mxCell id="Vi1Zf-3-arT8VYsQfJaG-48" value="MMU" style="text;html=1;strokeColor=default;fillColor=none;align=center;verticalAlign=middle;whiteSpace=wrap;rounded=0;" vertex="1" parent="WIyWlLk6GJQsqaUBKTNV-1">
          <mxGeometry x="385" y="410" width="90" height="30" as="geometry" />
        </mxCell>
        <mxCell id="Vi1Zf-3-arT8VYsQfJaG-49" value="물리적 주소" style="text;html=1;strokeColor=default;fillColor=none;align=center;verticalAlign=middle;whiteSpace=wrap;rounded=0;" vertex="1" parent="WIyWlLk6GJQsqaUBKTNV-1">
          <mxGeometry x="380" y="490" width="90" height="30" as="geometry" />
        </mxCell>
        <mxCell id="Vi1Zf-3-arT8VYsQfJaG-59" style="edgeStyle=orthogonalEdgeStyle;rounded=0;orthogonalLoop=1;jettySize=auto;html=1;" edge="1" parent="WIyWlLk6GJQsqaUBKTNV-1" source="Vi1Zf-3-arT8VYsQfJaG-50" target="Vi1Zf-3-arT8VYsQfJaG-58">
          <mxGeometry relative="1" as="geometry" />
        </mxCell>
        <mxCell id="Vi1Zf-3-arT8VYsQfJaG-50" value="Key/Value" style="text;html=1;strokeColor=default;fillColor=none;align=center;verticalAlign=middle;whiteSpace=wrap;rounded=0;" vertex="1" parent="WIyWlLk6GJQsqaUBKTNV-1">
          <mxGeometry x="580" y="350" width="70" height="30" as="geometry" />
        </mxCell>
        <mxCell id="Vi1Zf-3-arT8VYsQfJaG-51" value="JSON" style="text;html=1;strokeColor=default;fillColor=none;align=center;verticalAlign=middle;whiteSpace=wrap;rounded=0;" vertex="1" parent="WIyWlLk6GJQsqaUBKTNV-1">
          <mxGeometry x="580" y="410" width="90" height="30" as="geometry" />
        </mxCell>
        <mxCell id="Vi1Zf-3-arT8VYsQfJaG-58" value="AJAX" style="text;html=1;strokeColor=default;fillColor=none;align=center;verticalAlign=middle;whiteSpace=wrap;rounded=0;" vertex="1" parent="WIyWlLk6GJQsqaUBKTNV-1">
          <mxGeometry x="700" y="350" width="90" height="30" as="geometry" />
        </mxCell>
        <mxCell id="Vi1Zf-3-arT8VYsQfJaG-60" style="edgeStyle=orthogonalEdgeStyle;rounded=0;orthogonalLoop=1;jettySize=auto;html=1;entryX=0.38;entryY=0.008;entryDx=0;entryDy=0;entryPerimeter=0;" edge="1" parent="WIyWlLk6GJQsqaUBKTNV-1" source="Vi1Zf-3-arT8VYsQfJaG-50" target="Vi1Zf-3-arT8VYsQfJaG-51">
          <mxGeometry relative="1" as="geometry" />
        </mxCell>
        <mxCell id="Vi1Zf-3-arT8VYsQfJaG-65" style="edgeStyle=orthogonalEdgeStyle;rounded=0;orthogonalLoop=1;jettySize=auto;html=1;entryX=0.015;entryY=0.118;entryDx=0;entryDy=0;entryPerimeter=0;" edge="1" parent="WIyWlLk6GJQsqaUBKTNV-1" source="Vi1Zf-3-arT8VYsQfJaG-49" target="Vi1Zf-3-arT8VYsQfJaG-45">
          <mxGeometry relative="1" as="geometry" />
        </mxCell>
        <mxCell id="Vi1Zf-3-arT8VYsQfJaG-67" style="edgeStyle=orthogonalEdgeStyle;rounded=0;orthogonalLoop=1;jettySize=auto;html=1;entryX=1;entryY=0.5;entryDx=0;entryDy=0;startArrow=classic;startFill=1;" edge="1" parent="WIyWlLk6GJQsqaUBKTNV-1" source="Vi1Zf-3-arT8VYsQfJaG-66" target="Vi1Zf-3-arT8VYsQfJaG-1">
          <mxGeometry relative="1" as="geometry" />
        </mxCell>
        <mxCell id="Vi1Zf-3-arT8VYsQfJaG-66" value="" style="rounded=0;whiteSpace=wrap;html=1;" vertex="1" parent="WIyWlLk6GJQsqaUBKTNV-1">
          <mxGeometry x="1020" y="60" width="320" height="580" as="geometry" />
        </mxCell>
        <mxCell id="Vi1Zf-3-arT8VYsQfJaG-69" value="셸" style="text;html=1;strokeColor=default;fillColor=none;align=center;verticalAlign=middle;whiteSpace=wrap;rounded=0;" vertex="1" parent="WIyWlLk6GJQsqaUBKTNV-1">
          <mxGeometry x="1020" y="60" width="60" height="30" as="geometry" />
        </mxCell>
        <mxCell id="Vi1Zf-3-arT8VYsQfJaG-70" value="IPC" style="text;html=1;strokeColor=default;fillColor=none;align=center;verticalAlign=middle;whiteSpace=wrap;rounded=0;" vertex="1" parent="WIyWlLk6GJQsqaUBKTNV-1">
          <mxGeometry x="930" y="310" width="60" height="30" as="geometry" />
        </mxCell>
        <mxCell id="Vi1Zf-3-arT8VYsQfJaG-71" value="문맥교환" style="text;html=1;strokeColor=default;fillColor=none;align=center;verticalAlign=middle;whiteSpace=wrap;rounded=0;" vertex="1" parent="WIyWlLk6GJQsqaUBKTNV-1">
          <mxGeometry x="690" y="130" width="60" height="30" as="geometry" />
        </mxCell>
        <mxCell id="Vi1Zf-3-arT8VYsQfJaG-76" style="edgeStyle=orthogonalEdgeStyle;rounded=0;orthogonalLoop=1;jettySize=auto;html=1;" edge="1" parent="WIyWlLk6GJQsqaUBKTNV-1" source="Vi1Zf-3-arT8VYsQfJaG-75">
          <mxGeometry relative="1" as="geometry">
            <mxPoint x="470" y="140" as="targetPoint" />
          </mxGeometry>
        </mxCell>
        <mxCell id="Vi1Zf-3-arT8VYsQfJaG-75" value="컴파일러" style="text;html=1;strokeColor=default;fillColor=none;align=center;verticalAlign=middle;whiteSpace=wrap;rounded=0;" vertex="1" parent="WIyWlLk6GJQsqaUBKTNV-1">
          <mxGeometry x="440" y="90" width="60" height="30" as="geometry" />
        </mxCell>
      </root>
    </mxGraphModel>
  </diagram>
</mxfile>
